<svg xmlns="http://www.w3.org/2000/svg" width="16.006" height="16.006" viewBox="0 0 212 212">
  <defs>
    <style>
      .cls-1, .cls-2, .cls-3, .cls-4, .cls-5, .cls-6 {
        fill-rule: evenodd;
      }

      .cls-2 {
        fill: #f9bb0e;
      }

      .cls-3 {
        fill: #82ca9c;
      }

      .cls-4 {
        fill: #a3d39c;
      }

      .cls-5 {
        fill: #f5989d;
      }

      .cls-6 {
        fill: #1a1a1a;
      }
    </style>
  </defs>
  <path class="cls-1" d="M6.135,203.981c60.6-2.2,122.859-4.408,183.463-6.612l16.528-8.264c1.653-30.3,3.342-62.283,4.958-92.558-9.117-5.385-10.451-6.353-32.218-20.864C170.456,21.851,71.389,85.717,1.86,113.075,3.588,142.989,4.48,174.23,6.135,203.981Z"/>
  <path class="cls-1" d="M106.957,70.1q2.478-16.528,4.958-33.056c18.139,5.859,28.759,13.488,28.1,19.834-0.186,1.788-2.854,5.154-8.264,8.264A41.534,41.534,0,0,1,106.957,70.1Z"/>
  <path class="cls-2" d="M197.862,151.09C133.953,157.151,71.7,164.864,7.787,170.924c0,10.468,1.653,19.283,1.653,29.751,22.591-1.105,41.869-2.207,64.46-3.306q51.244-2.492,102.475-4.958A27.378,27.378,0,0,0,197.862,151.09Z"/>
  <path class="cls-2" d="M85.47,83.325L14.4,113.076l175.2-6.612L204.473,98.2,178.028,83.325,163.152,99.853l-23.139,1.653L131.749,98.2H115.221Z"/>
  <path class="cls-3" d="M95.387,78.366c-1.032,4.162,6.27,10.909,18.181,16.528l18.181,1.653a36.143,36.143,0,0,1-6.611-23.139C107.94,70.836,96.513,73.824,95.387,78.366Z"/>
  <path class="cls-4" d="M135.055,58.533c0.014,4.334-3.509,8.929-9.917,11.57H111.915c0.359-4.918,1.08-13.17,1.653-19.834,0.229-2.664.657-7.135,3.306-8.264,1.883-.8,5.954,1.315,11.569,6.611C132.826,52.75,135.048,56.659,135.055,58.533Z"/>
  <path class="cls-5" d="M143.319,58.533c-3.727-1.924-16.549,7.628-16.529,19.834,0.017,9.955,8.558,17.612,16.529,19.834,14.15,3.945,31.234-7.872,31.4-19.834,0.147-10.378-12.436-20.244-16.528-18.181-1.681.848-1.177,3.372-3.306,4.958a7.349,7.349,0,0,1-8.264,0C144.064,63.156,145.217,59.513,143.319,58.533Z"/>
  <path class="cls-1" d="M179.681,7.3c-10.238,1.082-18.966,4.609-23.14,11.57-0.479.8-1.107,2.1-1.653,3.306a49.983,49.983,0,0,0-3.305,9.917c-2.275,10.347-.378,18.165,1.653,21.487,1.773,2.9,5.688,9.8,4.958,11.57s-7.326,2.716-9.917,3.306c-1.958.446-4.056-3.7-4.958-9.917-1.322-9.1,1.357-26.88,3.305-38.015A67.124,67.124,0,0,1,161.5,7.3,83.283,83.283,0,0,1,173.069.684Z"/>
  <path class="cls-2" d="M198.862,140.826c-14.365,3.144-28.421,6.211-42.974,8.264-53.279,7.517-96.006,10.153-148.753,11.57,0-10.468-1.653-20.936-1.653-31.4,32.135-3.053,63.613-5.223,95.863-6.612,32.179-1.385,63.657-1.928,95.864-1.653a22.02,22.02,0,0,1,3.305,11.57A21.766,21.766,0,0,1,198.862,140.826Z"/>
  <path class="cls-6" d="M189.6,109.77c-16-.4-31.731-0.4-47.932,0-27.4.67-66.547,3.824-89.252,4.958-15.977.8-31.707,1.338-47.932,1.653-0.255,5.668.574,10.108,3.306,11.57,1.988,1.064,4.353.206,4.958,0,10.015-3.41,44.446-3.186,72.724-6.611,17.516-2.122,63.958-2.774,76.03-3.306,11.582-.51,23.1-1.059,34.709-1.653l9.917-6.611c0.759-2.234.888-4.013,0-4.959C204.017,102.568,196.835,105.724,189.6,109.77Z"/>
</svg>
