<?xml version="1.0" standalone="no"?>
<!DOCTYPE svg PUBLIC "-//W3C//DTD SVG 20010904//EN"
 "http://www.w3.org/TR/2001/REC-SVG-20010904/DTD/svg10.dtd">
<svg version="1.0" xmlns="http://www.w3.org/2000/svg"
 width="100pt" height="100pt" viewBox="0 0 100 100"
 preserveAspectRatio="xMidYMid meet">

<g transform="translate(0.000000,959.000000) scale(0.100000,-0.100000)"
fill="#000000" stroke="none">
<path d="M4983 7433 c-78 -104 -151 -199 -161 -212 l-19 -23 -32 33 c-17 19
-49 70 -71 114 -39 80 -144 217 -174 228 -25 10 -20 2 44 -75 33 -39 60 -75
60 -81 0 -5 -35 23 -77 63 -84 78 -113 80 -40 3 61 -64 90 -103 84 -109 -10
-11 -45 16 -93 71 -27 30 -55 55 -63 55 -7 0 12 -29 44 -65 32 -36 55 -68 52
-71 -3 -3 -35 23 -71 57 -74 69 -87 65 -25 -8 57 -66 146 -141 195 -164 44
-21 114 -85 114 -104 0 -6 -68 -78 -150 -159 -83 -82 -153 -159 -156 -173 -9
-35 11 -73 38 -73 33 0 67 33 131 125 60 87 71 97 166 164 l64 45 43 -50 c24
-27 56 -76 72 -109 16 -33 48 -78 72 -99 47 -43 124 -81 146 -72 45 17 -25
150 -112 210 -17 11 -64 52 -104 90 l-73 69 26 19 c66 48 224 320 248 428 8
35 -2 60 -25 60 -6 0 -76 -84 -153 -187z"/>
<path d="M4317 7193 c-4 -3 -7 -35 -7 -70 l0 -63 45 0 c25 0 45 5 45 10 0 6
-16 10 -35 10 -28 0 -35 4 -35 20 0 16 7 20 30 20 17 0 30 5 30 10 0 6 -13 10
-30 10 -23 0 -30 4 -30 20 0 16 7 20 35 20 19 0 35 5 35 10 0 11 -73 14 -83 3z"/>
<path d="M4521 7167 c-5 -7 -8 -22 -6 -33 2 -10 6 -31 10 -46 4 -19 12 -28 25
-28 11 0 20 5 20 10 0 6 -4 10 -10 10 -5 0 -10 14 -10 30 0 17 5 30 10 30 16
0 11 14 -9 27 -15 10 -22 9 -30 0z"/>
<path d="M5015 7170 c-3 -6 5 -10 19 -10 38 0 39 -14 0 -48 -20 -17 -33 -36
-29 -42 8 -13 75 -13 75 0 0 6 -12 10 -26 10 l-26 0 31 29 c17 16 31 33 31 38
0 27 -61 46 -75 23z"/>
<path d="M5110 7161 c-23 -43 4 -105 43 -99 59 8 55 118 -4 118 -18 0 -32 -7
-39 -19z m58 -38 c-3 -42 -22 -54 -38 -23 -15 28 -4 60 21 60 17 0 20 -6 17
-37z"/>
<path d="M5215 7171 c-4 -7 5 -11 24 -11 40 0 39 -17 -1 -50 -19 -16 -28 -31
-24 -38 9 -15 62 -16 71 -2 4 6 -6 10 -21 10 l-28 0 28 29 c36 37 31 65 -11
69 -17 2 -34 -2 -38 -7z"/>
<path d="M5322 7168 c-15 -15 -16 -62 -2 -89 27 -50 90 5 74 64 -7 23 -16 33
-34 35 -14 2 -31 -3 -38 -10z m53 -48 c0 -28 -4 -35 -20 -35 -13 0 -21 8 -23
23 -5 34 5 54 25 50 13 -2 18 -13 18 -38z"/>
<path d="M4424 7145 c-7 -18 12 -45 32 -45 8 0 14 -4 14 -10 0 -5 -12 -10 -26
-10 -14 0 -23 -4 -19 -10 10 -16 51 -12 66 6 12 15 11 18 -4 28 -10 6 -26 16
-35 23 -15 11 -14 12 11 13 15 0 27 5 27 10 0 16 -60 12 -66 -5z"/>
<path d="M4590 7070 c0 -5 4 -10 9 -10 6 0 13 5 16 10 3 6 -1 10 -9 10 -9 0
-16 -4 -16 -10z"/>
<path d="M4752 6512 c-84 -84 -122 -238 -122 -494 0 -106 4 -168 11 -175 8 -8
21 -8 43 -1 17 5 42 11 56 14 36 7 60 40 60 85 0 47 23 109 63 167 54 81 59
54 32 -171 -15 -125 -10 -189 19 -246 20 -39 42 -45 85 -24 37 18 90 92 131
182 20 43 21 44 36 23 32 -46 129 -48 187 -2 27 22 148 187 191 262 20 34 24
48 15 54 -7 4 -14 3 -16 -3 -7 -20 -110 -171 -139 -206 -17 -18 -37 -36 -46
-39 -36 -14 -84 74 -76 140 3 24 8 28 48 32 79 10 118 49 104 105 -6 26 -41
62 -64 66 -74 14 -187 -52 -228 -134 -24 -48 -30 -136 -12 -196 8 -28 5 -42
-19 -90 -16 -31 -38 -64 -49 -74 l-21 -19 -3 186 c-3 174 -4 187 -24 207 -13
13 -39 23 -66 26 -37 4 -49 1 -74 -20 -16 -14 -39 -42 -49 -61 -38 -69 -41
-47 -25 144 8 94 16 127 41 183 26 57 30 73 20 93 -17 38 -63 32 -109 -14z
m88 -24 c0 -26 -16 -55 -25 -47 -5 6 14 69 21 69 2 0 4 -10 4 -22z m565 -298
c0 -28 -34 -50 -77 -50 -36 0 -35 14 2 51 37 38 75 37 75 -1z m-171 -236 c9
-22 -3 -32 -14 -14 -12 19 -12 30 -1 30 5 0 12 -7 15 -16z m23 -50 c-3 -3 -12
-4 -19 -1 -8 3 -5 6 6 6 11 1 17 -2 13 -5z"/>
<path d="M4161 6510 c-35 -8 -82 -39 -88 -56 -6 -17 86 -54 149 -61 l60 -6 -6
-76 c-11 -130 -8 -376 6 -436 l13 -55 47 0 c26 0 50 5 53 10 3 6 16 10 29 10
30 0 66 50 66 92 0 18 -5 52 -10 76 -6 24 -17 105 -25 180 -8 75 -16 146 -17
157 -3 17 4 21 52 25 72 7 97 22 109 67 6 20 9 37 8 38 -1 0 -20 9 -42 20 -34
16 -66 19 -205 21 -91 2 -180 -1 -199 -6z m283 -523 c5 -20 6 -40 3 -44 -12
-11 -36 30 -37 60 0 40 23 29 34 -16z"/>
<path d="M1820 5270 c-7 -12 -9 -153 -8 -412 l3 -393 75 -5 c41 -3 110 -2 153
1 64 4 84 10 119 35 56 40 82 93 86 179 3 60 0 77 -22 119 l-27 48 26 63 c19
49 25 81 25 141 0 179 -85 244 -317 244 -91 0 -103 -2 -113 -20z m110 -39 c0
-5 -7 -11 -15 -15 -9 -3 -15 -18 -15 -38 0 -35 -14 -66 -23 -52 -16 26 -10 64
12 88 25 26 41 33 41 17z m83 0 c8 -1 10 -31 1 -31 -3 0 -15 5 -26 11 -14 8
-23 8 -31 0 -16 -16 -27 -14 -21 3 6 16 29 24 54 20 8 -1 18 -3 23 -3z m164
-97 c27 -42 21 -142 -12 -194 -14 -22 -30 -38 -36 -34 -6 3 1 20 17 41 20 26
23 37 14 43 -9 6 -9 13 -1 28 16 30 14 98 -4 116 -17 17 -19 26 -5 26 5 0 17
-12 27 -26z m-89 -4 c27 -26 36 -59 29 -116 -8 -74 -70 -118 -142 -100 -25 6
-25 7 -25 115 0 59 3 111 7 114 3 4 29 7 58 7 38 0 57 -5 73 -20z m-196 -37
c-11 -21 -6 -76 8 -104 7 -12 7 -19 1 -19 -26 0 -51 101 -31 125 17 21 33 19
22 -2z m0 -145 c-9 -9 -15 -9 -24 0 -9 9 -7 12 12 12 19 0 21 -3 12 -12z m4
-88 c12 -112 0 -245 -21 -245 -14 0 -18 114 -6 129 8 10 7 25 -3 54 -9 25 -11
44 -5 47 5 4 9 17 9 30 0 25 10 58 16 53 2 -2 6 -33 10 -68z m169 -20 c-3 -5
-11 -10 -16 -10 -6 0 -7 5 -4 10 3 6 11 10 16 10 6 0 7 -4 4 -10z m96 -42 c40
-55 47 -75 42 -118 -5 -38 -37 -89 -49 -78 -3 4 1 23 10 43 13 27 15 39 6 50
-6 7 -10 19 -9 27 2 12 -2 26 -22 76 -5 12 -17 22 -28 22 -11 0 -23 5 -26 10
-4 6 5 10 19 10 19 0 34 -12 57 -42z m-66 -43 c17 -16 25 -35 25 -59 0 -76
-39 -110 -121 -104 l-44 3 -3 79 c-2 44 -1 85 2 93 4 9 24 13 61 13 46 0 60
-4 80 -25z m59 -180 c-27 -20 -51 -20 -34 0 7 8 22 15 33 15 20 0 20 0 1 -15z
m-244 -35 c0 -5 -4 -10 -10 -10 -5 0 -10 5 -10 10 0 6 5 10 10 10 6 0 10 -4
10 -10z"/>
<path d="M2401 5277 c-14 -18 -14 -804 0 -813 14 -8 335 -8 349 1 13 8 11 94
-3 113 -6 8 -40 12 -101 12 -50 0 -97 4 -104 8 -20 13 -18 183 2 197 9 7 50
11 101 10 100 -3 115 6 115 65 0 60 -17 70 -118 70 -48 0 -93 4 -100 8 -9 6
-12 34 -10 103 l3 94 103 5 c76 4 105 9 112 20 14 21 12 94 -2 108 -18 18
-332 17 -347 -1z m169 -55 c29 -12 16 -19 -40 -24 -23 -2 -35 -8 -36 -18 0 -8
-3 -22 -7 -30 -3 -8 -8 -28 -12 -44 -7 -34 -14 -29 -25 19 -9 39 2 94 21 106
15 9 66 4 99 -9z m95 8 c-3 -5 0 -10 9 -10 8 0 16 6 19 13 2 6 7 9 11 6 11
-10 -5 -39 -23 -39 -24 0 -45 16 -37 29 4 6 12 11 17 11 6 0 7 -4 4 -10z m-35
-4 c0 -3 -4 -8 -10 -11 -5 -3 -10 -1 -10 4 0 6 5 11 10 11 6 0 10 -2 10 -4z
m-160 -201 c0 -14 -4 -25 -10 -25 -5 0 -10 11 -10 25 0 14 5 25 10 25 6 0 10
-11 10 -25z m254 -169 c-5 -13 -9 -14 -20 -5 -8 6 -14 7 -14 2 0 -11 -61 -10
-81 2 -8 5 -23 9 -33 10 -11 0 -21 5 -23 12 -3 9 14 11 65 8 37 -2 75 0 83 5
17 11 32 -11 23 -34z m-250 9 c-4 -8 -8 -15 -10 -15 -2 0 -4 7 -4 15 0 8 4 15
10 15 5 0 7 -7 4 -15z m-4 -77 c0 -24 -17 -23 -25 2 -8 26 4 48 16 29 5 -8 9
-22 9 -31z m-3 -85 c2 -21 6 -63 10 -93 8 -52 10 -55 38 -56 16 -1 31 -6 33
-13 2 -6 14 -11 27 -11 31 0 43 -20 13 -21 -86 -5 -131 -3 -138 6 -11 15 -18
65 -10 70 4 3 6 33 5 67 -2 50 6 88 19 88 1 0 2 -17 3 -37z m174 -196 c-16
-16 -25 -1 -10 16 8 8 16 11 18 5 2 -5 -2 -15 -8 -21z"/>
<path d="M2882 5278 c-7 -7 -12 -33 -12 -60 0 -53 15 -68 69 -68 16 0 33 -5
36 -10 4 -6 6 -156 6 -333 0 -177 4 -329 9 -337 10 -16 111 -15 121 1 3 5 6
157 7 336 1 347 1 343 50 343 47 0 62 17 62 68 0 27 -5 53 -12 60 -8 8 -60 12
-168 12 -108 0 -160 -4 -168 -12z m293 -47 c18 -1 18 -2 -3 -17 -13 -9 -29
-13 -37 -10 -7 2 -16 0 -19 -7 -3 -9 -8 -8 -15 3 -14 20 -27 2 -35 -51 -3 -22
-11 -39 -17 -39 -5 0 -9 6 -8 13 3 13 -10 77 -18 91 -3 4 -9 2 -14 -5 -6 -10
-13 -10 -33 -1 -59 27 -14 32 199 23z m-112 -161 c-3 -11 -7 -20 -9 -20 -2 0
-4 9 -4 20 0 11 4 20 9 20 5 0 7 -9 4 -20z m-1 -115 c3 -14 0 -30 -7 -35 -10
-8 -12 -3 -9 22 4 49 9 52 16 13z m2 -116 c3 -18 2 -37 -4 -44 -5 -6 -7 -15
-4 -18 10 -10 6 -106 -6 -125 -8 -14 -9 -13 -10 10 0 15 -5 39 -10 54 -7 18
-7 30 0 39 6 7 8 29 6 49 -9 63 16 93 28 35z m-4 -251 c0 -19 -2 -20 -10 -8
-13 19 -13 30 0 30 6 0 10 -10 10 -22z m6 -54 c-3 -9 -6 -18 -6 -20 0 -2 -7
-4 -15 -4 -18 0 -19 12 -3 28 17 17 31 15 24 -4z"/>
<path d="M3333 5283 c-14 -5 -19 -122 -5 -124 4 -1 22 -3 40 -5 63 -5 61 6 64
-358 l3 -331 63 -3 62 -3 0 320 c0 183 4 331 10 345 7 20 16 26 40 26 55 0 70
15 70 68 0 27 -5 53 -12 60 -12 12 -307 17 -335 5z m304 -57 c4 -3 -1 -6 -10
-6 -9 0 -17 -5 -17 -11 0 -6 -8 -8 -19 -4 -11 3 -23 1 -26 -6 -6 -8 -10 -7
-16 2 -8 12 -11 11 -19 -1 -5 -8 -10 -25 -10 -37 0 -50 -34 -24 -44 34 -3 17
-16 29 -16 15 0 -7 -8 -12 -18 -12 -18 0 -42 18 -42 31 0 8 229 3 237 -5z
m-130 -168 c-3 -7 -5 -2 -5 12 0 14 2 19 5 13 2 -7 2 -19 0 -25z m6 -108 c3
-10 -1 -24 -7 -29 -10 -8 -13 -3 -13 19 0 34 12 40 20 10z m-2 -102 c4 -61 -3
-183 -11 -197 -9 -16 -11 -14 -15 24 -1 11 -5 30 -9 43 -4 13 -3 28 2 35 5 7
8 28 7 47 -4 41 3 70 16 70 5 0 10 -10 10 -22z m-1 -264 c0 -8 -4 -12 -10 -9
-5 3 -10 13 -10 21 0 8 5 12 10 9 6 -3 10 -13 10 -21z m0 -65 c-9 -15 -15 -18
-23 -10 -7 7 -5 16 8 32 22 24 32 10 15 -22z"/>
<path d="M3821 5277 c-8 -11 -11 -123 -9 -413 l3 -399 175 0 175 0 0 60 0 60
-100 3 c-121 3 -125 7 -125 107 0 95 8 104 96 106 39 1 85 4 102 7 32 4 32 5
32 62 0 70 0 70 -120 70 -106 0 -110 4 -110 105 0 100 5 105 103 105 127 0
128 1 125 74 l-3 61 -166 3 c-132 2 -169 0 -178 -11z m157 -52 c35 -12 26 -25
-18 -25 -35 0 -42 -4 -51 -27 -6 -16 -12 -41 -15 -57 -4 -31 -11 -43 -20 -34
-12 13 -9 125 4 141 14 16 55 17 100 2z m125 3 c18 15 31 3 16 -15 -19 -23
-69 -7 -54 17 6 9 9 9 15 -1 7 -10 12 -10 23 -1z m-219 -187 c4 -5 3 -17 0
-26 -5 -13 -8 -14 -15 -3 -5 7 -9 19 -9 26 0 14 16 16 24 3z m259 -177 c-3 -8
-11 -13 -18 -10 -7 2 -16 2 -19 -2 -12 -11 -51 -9 -77 4 -15 7 -29 11 -32 8
-3 -3 -14 -1 -24 4 -16 10 -17 11 -1 17 9 4 25 2 35 -3 12 -7 25 -7 36 -1 10
6 25 8 35 5 9 -3 24 -1 32 4 18 11 41 -6 33 -26z m-261 -6 c-7 -7 -12 -8 -12
-2 0 6 3 14 7 17 3 4 9 5 12 2 2 -3 -1 -11 -7 -17z m2 -71 c-9 -24 -24 -11
-24 21 0 24 2 25 15 11 9 -9 13 -23 9 -32z m-4 -72 c-8 -9 -8 -15 0 -20 5 -3
10 -21 10 -38 0 -18 3 -49 7 -70 5 -34 9 -38 28 -33 13 3 27 0 34 -8 15 -18
81 -28 98 -14 10 8 13 6 13 -6 0 -19 9 -17 -108 -21 -82 -2 -94 0 -103 16 -10
20 -7 98 5 117 4 7 3 27 -2 46 -7 23 -6 38 1 45 15 15 30 2 17 -14z"/>
<path d="M4342 5282 c-18 -12 -18 -812 0 -823 14 -9 99 -1 110 9 4 4 9 79 10
167 l3 160 38 3 c68 6 77 -11 78 -152 1 -67 4 -134 8 -151 6 -28 10 -30 59
-35 29 -3 57 -3 63 0 6 4 8 68 6 166 -3 127 -7 166 -21 192 -10 18 -16 41 -12
50 3 9 14 42 25 72 52 142 -9 307 -124 339 -46 13 -224 15 -243 3z m144 -53
c4 -7 0 -9 -12 -5 -34 10 -64 -24 -71 -82 -8 -69 -18 -56 -18 24 0 69 2 71 62
73 17 0 35 -4 39 -10z m184 -108 c7 -22 10 -50 7 -62 -3 -13 -2 -28 3 -34 7
-8 5 -23 -6 -43 -26 -53 -34 -47 -34 22 0 36 4 67 10 71 5 3 7 11 5 18 -21 69
-8 95 15 28z m-101 15 c33 -40 35 -150 4 -181 -17 -18 -84 -20 -101 -3 -16 16
-16 170 0 186 17 17 83 15 97 -2z m-169 -111 c0 -41 -11 -58 -24 -37 -8 13 5
82 15 82 5 0 9 -20 9 -45z m-6 -87 c9 -34 7 -50 -5 -43 -6 4 -8 13 -5 21 3 7
1 16 -4 19 -12 8 -13 25 -1 25 5 0 11 -10 15 -22z m240 -33 c-4 -8 -11 -15
-16 -15 -6 0 -5 6 2 15 7 8 14 15 16 15 2 0 1 -7 -2 -15z m22 -123 c13 5 17
-83 5 -95 -8 -8 -11 -5 -11 10 0 11 -6 23 -13 26 -9 3 -12 17 -9 42 3 22 8 32
12 25 4 -6 11 -10 16 -8z m-256 -16 c0 -3 -4 -8 -10 -11 -5 -3 -10 -1 -10 4 0
6 5 11 10 11 6 0 10 -2 10 -4z m-1 -93 c0 -5 -4 -17 -9 -28 -8 -18 -9 -17 -9
8 -1 15 4 27 9 27 6 0 10 -3 9 -7z m271 -7 c0 -3 -4 -8 -10 -11 -5 -3 -10 -1
-10 4 0 6 5 11 10 11 6 0 10 -2 10 -4z m-266 -89 c-3 -83 -4 -89 -16 -85 -9 3
-13 27 -14 67 -1 52 1 62 15 59 12 -2 16 -13 15 -41z m266 18 c0 -8 -2 -15 -4
-15 -2 0 -6 7 -10 15 -3 8 -1 15 4 15 6 0 10 -7 10 -15z"/>
<path d="M4893 5278 c-11 -14 -17 -745 -7 -790 l6 -28 137 0 c125 0 142 2 182
23 24 13 57 43 74 66 26 37 30 53 34 122 3 71 0 83 -23 124 l-27 44 26 60 c35
83 36 207 2 271 -32 60 -81 98 -146 110 -78 15 -246 13 -258 -2z m107 -48 c0
-5 -6 -13 -14 -17 -8 -4 -16 -26 -18 -47 -4 -50 -25 -60 -30 -14 -2 24 4 41
21 61 25 27 41 35 41 17z m95 -9 c9 -15 -15 -24 -30 -11 -8 7 -24 9 -36 5 -14
-5 -19 -4 -15 4 9 13 73 15 81 2z m154 -90 c12 -16 18 -36 15 -45 -10 -25 -24
-19 -24 11 0 14 -7 35 -17 45 -9 10 -11 18 -5 18 6 0 20 -13 31 -29z m-98 6
c63 -48 46 -190 -27 -217 -35 -14 -77 -13 -92 2 -13 13 -18 209 -5 221 11 12
107 7 124 -6z m-189 -44 c-9 -19 -8 -33 3 -99 7 -40 -6 -67 -23 -49 -3 3 -1 9
5 13 9 5 8 22 -4 64 -13 47 -14 60 -3 73 17 21 33 19 22 -2z m303 -78 c-5 -39
-56 -127 -62 -108 -3 7 5 27 18 44 16 23 19 33 9 39 -9 6 -8 14 4 39 21 39 36
32 31 -14z m-299 -156 c12 -110 1 -244 -21 -244 -14 0 -18 115 -4 131 9 11 9
21 -1 43 -7 19 -9 46 -5 73 13 77 22 76 31 -3z m273 -72 c25 -39 33 -62 32
-92 -1 -43 -18 -95 -32 -95 -17 0 -18 19 -3 48 11 24 12 36 4 51 -5 11 -9 24
-9 28 2 8 -3 23 -22 71 -5 12 -17 22 -28 22 -11 0 -23 5 -26 10 -4 6 6 10 22
10 23 0 34 -10 62 -53z m-74 -32 c17 -16 25 -35 25 -59 0 -76 -39 -110 -121
-104 l-44 3 -3 84 c-3 97 -1 101 71 101 38 0 53 -5 72 -25z m59 -180 c-27 -20
-51 -20 -34 0 7 8 22 15 33 15 20 0 20 0 1 -15z m-244 -29 c0 -3 -4 -8 -10
-11 -5 -3 -10 -1 -10 4 0 6 5 11 10 11 6 0 10 -2 10 -4z"/>
<path d="M5566 5274 c-3 -9 -36 -192 -72 -407 -62 -369 -64 -392 -48 -404 35
-25 114 -8 114 25 0 30 21 42 72 42 46 0 49 -2 55 -30 6 -35 23 -46 73 -48 70
-4 70 -22 0 405 -35 213 -67 398 -71 411 -7 19 -16 22 -63 22 -40 0 -55 -4
-60 -16z m84 -74 c6 -11 16 -62 22 -113 5 -51 14 -96 19 -101 15 -17 10 -36
-10 -36 -15 0 -19 7 -19 36 0 20 -5 40 -11 44 -7 3 -9 14 -5 23 5 13 0 17 -20
17 -20 0 -26 -5 -26 -23 0 -22 -16 -47 -30 -47 -9 0 8 111 21 133 5 10 7 27 4
38 -7 22 10 49 31 49 7 0 18 -9 24 -20z m-72 -222 c-2 -6 -10 -14 -16 -16 -7
-2 -10 2 -6 12 7 18 28 22 22 4z m122 -58 c0 -11 -4 -20 -9 -20 -5 0 -7 9 -4
20 3 11 7 20 9 20 2 0 4 -9 4 -20z m20 -76 c0 -8 -4 -14 -10 -14 -5 0 -10 9
-10 21 0 11 5 17 10 14 6 -3 10 -13 10 -21z m-76 -41 c3 -10 8 -43 11 -75 7
-51 5 -57 -14 -63 -48 -15 -58 24 -35 133 5 26 30 29 38 5z m86 -3 c0 -5 -5
-10 -11 -10 -5 0 -7 5 -4 10 3 6 8 10 11 10 2 0 4 -4 4 -10z m-179 -41 c-9
-23 -10 -22 -10 11 -1 23 2 31 9 24 7 -7 7 -19 1 -35z m200 -134 c15 -33 16
-137 2 -142 -9 -3 -13 5 -13 24 0 40 -18 60 -67 73 -57 14 -55 24 3 16 l47 -6
-6 68 -5 67 15 -40 c8 -22 19 -49 24 -60z m-211 34 c0 -29 18 -59 35 -59 8 0
15 -5 15 -11 0 -6 -9 -8 -20 -4 -15 5 -20 2 -20 -13 0 -24 -35 -70 -46 -59
-10 10 -5 100 7 112 5 5 9 19 9 32 0 13 5 23 10 23 6 0 10 -9 10 -21z"/>
<path d="M5932 5278 c-7 -7 -12 -33 -12 -58 0 -56 12 -70 62 -70 32 0 40 -4
48 -26 6 -15 9 -153 8 -340 -1 -173 1 -317 5 -320 12 -12 85 -16 106 -5 20 11
21 19 23 343 3 365 -2 341 71 353 l37 6 0 52 c0 29 -5 58 -12 65 -8 8 -60 12
-168 12 -108 0 -160 -4 -168 -12z m298 -47 c10 -1 8 -5 -7 -16 -12 -8 -28 -12
-37 -9 -10 4 -16 1 -16 -7 0 -10 -3 -10 -12 -1 -16 16 -38 -3 -38 -34 0 -41
-17 -35 -31 11 -10 35 -16 42 -26 33 -15 -12 -63 4 -63 20 0 7 143 9 230 3z
m-110 -151 c0 -5 -2 -10 -4 -10 -3 0 -8 5 -11 10 -3 6 -1 10 4 10 6 0 11 -4
11 -10z m-12 -157 c-13 -12 -14 -10 -10 18 4 27 6 29 14 14 7 -12 6 -21 -4
-32z m4 -80 c8 -45 -1 -186 -12 -197 -7 -7 -10 3 -10 31 0 23 -5 45 -10 48 -8
5 -7 11 0 20 7 8 11 31 10 52 -4 54 -1 73 9 73 5 0 11 -12 13 -27z m3 -261
c-8 -8 -25 10 -19 20 4 6 9 5 15 -3 4 -7 6 -15 4 -17z m3 -49 c-2 -10 -11 -19
-21 -21 -16 -3 -17 -1 -7 17 13 25 33 28 28 4z"/>
<path d="M6392 5282 c-9 -6 -12 -27 -10 -68 l3 -59 40 -3 c23 -1 45 -10 53
-19 9 -13 12 -97 12 -340 0 -297 1 -323 18 -331 20 -11 82 -10 100 1 9 6 12
85 12 336 0 252 3 331 13 339 7 6 30 12 52 14 l40 3 0 65 0 65 -160 2 c-88 2
-166 -1 -173 -5z m228 -52 c3 -1 21 -1 40 0 34 1 35 1 13 -14 -12 -9 -28 -13
-37 -10 -10 4 -16 1 -16 -7 0 -10 -3 -10 -12 -1 -17 17 -38 -4 -38 -37 0 -14
-5 -33 -11 -41 -9 -13 -10 -13 -6 1 3 9 -1 29 -9 44 -8 15 -14 34 -14 42 0 13
-3 13 -15 3 -12 -10 -21 -10 -40 -2 -14 7 -25 15 -25 20 0 6 155 9 170 2z
m-58 -312 c-8 -8 -10 -2 -10 23 1 31 2 32 11 11 7 -16 7 -26 -1 -34z m3 -150
c-4 -124 -3 -118 -15 -118 -5 0 -10 15 -10 33 0 18 -5 38 -11 44 -9 9 -8 16 4
27 11 11 13 24 7 49 -7 33 2 67 19 67 5 0 7 -46 6 -102z m5 -179 c0 -5 -4 -9
-10 -9 -5 0 -10 7 -10 16 0 8 5 12 10 9 6 -3 10 -10 10 -16z m0 -53 c0 -7 -7
-19 -15 -26 -12 -10 -15 -9 -15 7 0 11 3 23 7 26 11 12 23 8 23 -7z"/>
<path d="M6875 5280 c-9 -15 -11 -807 -2 -816 12 -12 316 -15 338 -3 15 7 19
21 19 57 0 27 -5 53 -12 60 -8 8 -46 12 -103 12 -57 0 -95 4 -103 12 -18 18
-16 172 3 188 9 7 48 12 102 12 48 0 94 4 101 10 15 13 16 100 0 116 -8 8 -46
12 -103 12 -57 0 -95 4 -103 12 -7 7 -12 43 -12 93 0 50 5 86 12 93 8 8 46 12
103 12 57 0 95 4 103 12 7 7 12 33 12 58 0 25 -5 51 -12 58 -15 15 -334 17
-343 2z m164 -56 c28 -15 18 -21 -39 -26 -25 -2 -35 -8 -35 -20 0 -9 -4 -20
-8 -24 -4 -4 -7 -20 -7 -35 0 -39 -16 -45 -24 -8 -10 52 -7 97 8 112 18 17 72
18 105 1z m107 -4 c8 0 14 5 14 12 0 9 3 9 12 0 9 -9 9 -15 1 -23 -15 -15 -53
-1 -52 19 0 11 3 12 6 5 2 -7 11 -13 19 -13z m-46 6 c0 -3 -4 -8 -10 -11 -5
-3 -10 -1 -10 4 0 6 5 11 10 11 6 0 10 -2 10 -4z m-159 -189 c-1 -4 -1 -14 -1
-22 0 -8 -4 -15 -10 -15 -5 0 -10 12 -10 26 0 14 5 24 11 22 6 -2 10 -7 10
-11z m250 -183 c-7 -12 -11 -14 -11 -5 0 9 -4 10 -12 5 -15 -11 -58 -10 -84 1
-11 4 -28 8 -38 9 -11 1 -21 7 -23 14 -6 15 29 16 45 0 8 -8 15 -8 26 1 8 7
25 9 39 6 15 -4 28 -2 32 5 5 9 11 8 22 -3 12 -11 13 -19 4 -33z m-247 11 c-4
-8 -8 -15 -10 -15 -2 0 -4 7 -4 15 0 8 4 15 10 15 5 0 7 -7 4 -15z m-4 -77 c0
-19 -19 -26 -21 -8 -1 6 -2 16 -3 23 -1 6 0 16 2 21 6 11 22 -15 22 -36z m-4
-85 c1 -16 5 -55 10 -88 9 -58 10 -60 42 -63 17 -2 32 -7 32 -13 0 -5 11 -9
24 -9 32 0 45 -20 14 -21 -88 -5 -131 -3 -139 7 -11 14 -9 115 3 131 6 7 4 19
-3 31 -12 19 -7 52 8 52 4 0 9 -12 9 -27z m176 -195 c-6 -6 -15 -8 -19 -4 -4
4 -1 11 7 16 8 5 17 7 19 4 3 -2 -1 -10 -7 -16z"/>
<path d="M7392 5277 c-14 -16 -16 -780 -3 -806 12 -21 103 -28 120 -8 6 8 12
76 13 173 l3 159 38 3 c70 6 77 -10 77 -168 0 -161 5 -172 73 -175 25 -1 50 1
55 4 14 9 -2 329 -18 367 -12 28 -11 37 9 85 33 75 34 196 2 262 -27 56 -68
92 -119 107 -55 15 -237 13 -250 -3z m154 -48 c3 -6 -1 -10 -12 -9 -37 4 -64
-11 -64 -36 0 -12 -4 -26 -10 -29 -5 -3 -7 -20 -3 -37 4 -22 3 -29 -5 -24 -19
12 -12 134 7 139 32 9 80 7 87 -4z m174 -88 c0 -11 5 -23 11 -27 7 -4 9 -22 6
-44 -3 -22 0 -43 7 -50 8 -9 8 -14 -1 -17 -7 -3 -13 -11 -13 -20 0 -8 -7 -21
-15 -29 -13 -14 -15 -12 -16 13 -1 15 -1 42 0 58 1 17 3 54 3 83 1 28 6 52 10
52 4 0 8 -9 8 -19z m-84 -16 c12 -19 15 -42 12 -96 -4 -77 -12 -89 -65 -89
-60 0 -63 4 -63 99 0 99 7 111 62 111 29 0 41 -6 54 -25z m-176 -100 c0 -33
-13 -54 -24 -37 -8 14 5 82 15 76 5 -3 9 -20 9 -39z m-6 -97 c6 -28 2 -48 -8
-37 -8 10 -15 69 -7 69 5 0 11 -14 15 -32z m246 -12 c0 -2 -7 -9 -15 -16 -13
-11 -14 -10 -9 4 5 14 24 23 24 12z m9 -136 c1 13 2 13 11 0 13 -20 13 -87 0
-95 -5 -3 -10 1 -10 11 0 9 -7 22 -16 29 -13 9 -15 19 -9 46 7 29 9 31 16 14
5 -13 8 -15 8 -5z m-262 -137 c-3 -10 -5 -4 -5 12 0 17 2 24 5 18 2 -7 2 -21
0 -30z m15 -55 c5 -44 -5 -94 -17 -91 -16 4 -16 123 0 123 7 0 14 -15 17 -32z
m262 6 c3 -8 2 -12 -4 -9 -6 3 -10 10 -10 16 0 14 7 11 14 -7z m-7 -56 c-3 -8
-6 -5 -6 6 -1 11 2 17 5 13 3 -3 4 -12 1 -19z"/>
<path d="M5312 4289 c-47 -23 -102 -83 -102 -111 0 -10 -4 -18 -9 -18 -9 0
-29 -63 -37 -120 -3 -19 -9 -64 -15 -100 -5 -36 -12 -94 -14 -130 -6 -73 11
-238 25 -255 6 -7 7 -15 3 -18 -3 -4 4 -18 17 -32 30 -32 89 -34 137 -4 54 34
263 328 263 371 0 28 -19 21 -38 -13 -21 -40 -93 -147 -146 -219 l-40 -54 -13
49 c-10 37 -13 102 -10 245 l4 195 37 75 c41 85 44 112 16 140 -25 25 -25 25
-78 -1z m72 -45 c3 -9 -5 -39 -19 -68 -19 -39 -24 -44 -20 -21 3 17 8 47 12
68 6 39 17 48 27 21z"/>
<path d="M3639 4247 c-82 -62 -126 -144 -166 -307 -21 -87 -25 -125 -24 -220
4 -200 6 -225 14 -237 6 -9 36 -13 93 -13 l85 0 34 38 c40 43 41 44 18 78 -11
17 -17 55 -21 122 l-4 97 41 63 c22 34 47 62 56 62 18 0 18 -3 4 -55 -6 -22
-27 -57 -45 -78 -19 -20 -34 -43 -34 -51 0 -8 9 -44 21 -81 11 -37 22 -103 24
-146 1 -44 8 -85 14 -93 6 -8 11 -18 10 -22 -3 -20 2 -35 9 -30 5 3 15 -6 22
-19 14 -26 61 -55 90 -55 30 0 105 57 127 97 25 44 20 62 -10 36 -18 -17 -19
-17 -33 1 -7 11 -17 36 -20 55 -4 20 -10 41 -15 46 -4 6 -13 33 -20 60 -14 62
-51 127 -85 154 l-27 21 25 20 c14 10 31 33 38 50 11 26 10 36 -5 71 -22 49
-54 59 -102 34 -18 -10 -45 -34 -60 -54 l-28 -36 -6 30 c-3 17 -6 60 -5 96 1
58 5 71 38 120 49 71 75 144 58 164 -20 25 -65 17 -111 -18z m91 -21 c0 -13
-34 -95 -47 -116 l-17 -25 -7 34 c-6 31 7 84 27 104 7 7 44 10 44 3z m-180
-390 c0 -24 -7 -57 -15 -72 -8 -16 -15 -38 -15 -49 -1 -16 -2 -17 -9 -5 -4 8
-6 50 -3 93 4 67 7 77 23 77 16 0 19 -8 19 -44z"/>
<path d="M3522 3805 c0 -16 2 -22 5 -12 2 9 2 23 0 30 -3 6 -5 -1 -5 -18z"/>
<path d="M2264 4246 c-72 -32 -105 -99 -138 -276 -14 -79 -14 -94 3 -210 10
-69 26 -143 35 -165 21 -48 63 -95 87 -95 10 0 19 -6 22 -12 2 -9 26 -13 75
-12 61 0 75 4 107 28 53 40 82 91 105 181 24 95 25 115 6 115 -16 0 -22 -14
-31 -80 -15 -103 -44 -148 -88 -136 -17 4 -32 21 -47 53 -36 74 -50 147 -56
288 -6 119 -4 135 16 189 38 100 79 121 130 66 36 -39 56 -40 36 -1 -24 46
-81 73 -161 78 -46 2 -80 -1 -101 -11z m-24 -313 c-5 -42 -1 -79 13 -133 10
-41 23 -92 28 -114 5 -21 15 -48 21 -60 11 -21 10 -21 -10 -3 -11 10 -26 33
-33 50 -7 18 -19 38 -26 45 -7 7 -14 25 -15 40 -1 35 -3 43 -13 65 -4 10 -3
29 4 44 10 22 9 25 -4 20 -16 -7 -20 27 -9 71 5 18 9 20 20 11 11 -9 14 -8 14
5 0 9 4 16 8 16 4 0 5 -26 2 -57z"/>
<path d="M7213 4032 c-26 -21 -43 -79 -43 -148 0 -73 -20 -129 -75 -214 -63
-98 -61 -96 -77 -69 -9 17 -15 81 -18 213 l-5 189 -27 20 c-23 17 -34 19 -70
11 -43 -9 -43 -9 -55 -69 -18 -87 -20 -343 -3 -386 35 -90 83 -120 158 -100
36 10 44 18 80 89 23 42 48 86 57 97 15 19 16 19 11 -10 -3 -16 -8 -74 -12
-128 -6 -96 -7 -99 -55 -170 -55 -82 -60 -113 -23 -148 22 -20 35 -24 87 -23
160 2 201 61 190 270 -7 134 -4 148 40 196 44 46 137 198 137 222 0 26 -22 15
-40 -20 -20 -38 -111 -175 -127 -192 -17 -17 -17 47 -3 203 14 144 12 151 -52
170 -28 8 -52 15 -52 15 -1 0 -11 -8 -23 -18z m-79 -707 c12 -63 -32 -116 -69
-85 -8 7 -15 18 -15 25 0 16 57 95 69 95 5 0 12 -16 15 -35z"/>
<path d="M4770 3995 c-55 -17 -117 -78 -156 -155 -26 -49 -29 -66 -29 -145 0
-107 18 -172 56 -203 44 -36 88 -38 151 -10 84 39 145 112 163 196 5 25 15 37
40 47 38 16 92 75 111 121 17 41 17 44 2 44 -7 0 -26 -22 -42 -49 -24 -41 -69
-81 -90 -81 -3 0 -6 21 -6 47 0 53 -24 110 -70 166 -35 41 -55 45 -130 22z
m129 -54 c10 -6 11 -13 2 -29 -6 -11 -11 -45 -11 -76 0 -44 5 -60 26 -85 22
-27 24 -34 15 -68 -21 -76 -77 -139 -118 -131 -32 6 -53 66 -53 152 0 100 23
167 73 212 40 36 45 38 66 25z m50 -104 c-1 -31 -1 -31 -9 -7 -11 36 -11 52 0
45 6 -3 10 -21 9 -38z"/>
<path d="M5767 3996 c-61 -22 -103 -63 -150 -146 -28 -48 -32 -65 -35 -145 -4
-120 18 -188 70 -223 32 -20 45 -23 80 -18 95 15 187 99 214 193 15 52 21 60
57 78 61 29 134 140 101 152 -7 2 -23 -16 -38 -41 -24 -41 -69 -86 -86 -86 -4
0 -10 28 -14 62 -6 61 -28 107 -80 166 -23 25 -61 28 -119 8z m130 -57 c8 -8
7 -18 -3 -38 -19 -39 -8 -115 23 -151 23 -28 23 -29 7 -77 -29 -86 -73 -130
-119 -119 -27 7 -41 42 -51 125 -10 88 22 186 76 235 43 39 50 42 67 25z m52
-114 c0 -26 -2 -27 -9 -10 -5 11 -9 31 -9 45 -1 20 1 22 9 10 5 -8 9 -28 9
-45z"/>
<path d="M2861 3982 c-67 -26 -148 -149 -167 -252 -22 -124 -15 -187 26 -231
43 -46 139 -29 207 36 26 25 48 45 50 45 2 0 3 -16 3 -36 0 -48 55 -104 103
-104 42 0 94 32 115 71 9 17 53 81 97 143 91 129 143 221 131 233 -9 9 -14 2
-92 -117 -71 -109 -124 -174 -135 -163 -4 4 -13 53 -19 108 -6 55 -13 120 -16
145 -8 77 -13 89 -44 105 -35 18 -70 20 -71 3 -1 -7 -2 -17 -4 -23 -1 -5 -3
-18 -3 -28 -2 -23 -22 -12 -22 12 0 22 -46 57 -85 64 -17 3 -49 -1 -74 -11z
m137 -123 c9 -14 11 -34 6 -63 -4 -22 -6 -53 -5 -69 2 -30 -18 -74 -57 -126
-23 -31 -26 -33 -33 -15 -16 40 -9 148 12 204 19 52 44 90 58 90 3 0 12 -9 19
-21z"/>
<path d="M4255 3985 c-60 -17 -142 -88 -175 -152 -44 -85 -23 -256 40 -326 27
-30 32 -32 97 -32 57 0 73 4 101 25 74 55 283 363 261 384 -8 8 -14 5 -23 -8
-6 -11 -40 -63 -74 -115 -105 -158 -156 -198 -194 -153 -36 42 -57 152 -33
176 9 8 22 13 30 9 26 -9 83 7 115 33 49 42 34 119 -30 158 -33 19 -48 19
-115 1z m140 -100 c0 -36 -31 -55 -92 -55 -40 0 -41 1 -30 23 16 34 68 68 97
65 20 -2 25 -8 25 -33z m-200 -304 c-10 -9 -25 14 -24 37 l1 27 13 -30 c7 -16
12 -32 10 -34z m45 -2 c0 -5 -4 -9 -10 -9 -5 0 -10 7 -10 16 0 8 5 12 10 9 6
-3 10 -10 10 -16z m-25 -30 c11 -17 -1 -21 -15 -4 -8 9 -8 15 -2 15 6 0 14 -5
17 -11z"/>
<path d="M6333 3990 c-88 -18 -147 -71 -191 -169 -34 -78 -42 -149 -26 -235
16 -85 44 -116 102 -116 47 0 131 48 169 95 15 19 31 35 35 35 3 0 5 -39 4
-87 -3 -85 -4 -90 -44 -146 -57 -82 -78 -148 -63 -199 8 -26 17 -38 26 -35 7
3 15 -3 18 -14 12 -46 120 -2 173 71 55 75 74 142 74 262 l0 106 47 63 c73 98
153 230 153 251 0 33 -17 19 -54 -44 -49 -85 -133 -198 -147 -198 -5 0 -8 3
-5 8 9 15 -21 238 -37 268 -10 19 -27 34 -44 39 -15 3 -38 16 -50 27 -25 23
-81 30 -140 18z m110 -168 c-1 -78 -5 -98 -28 -139 -72 -134 -100 -133 -100 5
0 69 5 98 24 139 22 50 73 97 96 89 6 -2 9 -41 8 -94z m-7 -494 c2 -23 6 -63
9 -88 6 -54 -2 -68 -41 -76 -36 -7 -57 13 -57 55 0 26 72 165 81 157 2 -2 5
-24 8 -48z"/>
<path d="M5070 3348 c-74 -45 -93 -83 -86 -170 5 -65 4 -68 -17 -68 -14 1 -32
15 -50 41 -24 35 -32 40 -59 37 -28 -3 -34 -8 -44 -45 -7 -24 -14 -58 -16 -75
-4 -38 -13 -48 -49 -48 -15 0 -32 -7 -40 -16 -21 -26 -174 -98 -314 -149 -71
-25 -136 -52 -143 -59 -10 -10 -11 -23 -4 -52 6 -22 9 -82 7 -134 -2 -58 1
-98 7 -101 6 -4 11 -39 10 -77 0 -114 -23 -108 365 -88 549 29 584 32 628 52
22 11 43 23 46 27 3 4 6 40 7 80 0 40 5 134 11 211 7 76 9 147 6 157 -6 18
-130 89 -155 89 -26 0 -5 -19 56 -50 l66 -35 -49 -12 c-56 -15 -127 -17 -119
-4 4 5 0 12 -6 14 -7 3 -1 6 15 6 26 1 40 21 15 21 -10 0 -10 2 0 9 11 7 11 9
-2 14 -13 5 -14 11 -5 34 5 15 8 37 4 50 -7 31 -58 81 -89 89 -26 6 -31 14
-41 75 -10 53 15 93 80 130 64 36 71 45 55 64 -18 21 -29 19 -90 -17z m-175
-198 c11 -13 15 -25 10 -37 -8 -17 -8 -17 -12 0 -4 15 -12 18 -34 15 -33 -5
-33 -4 -19 23 14 24 32 24 55 -1z m-34 -57 c12 -15 12 -16 -3 -10 -12 4 -18 1
-18 -9 0 -8 7 -17 15 -20 8 -4 15 -13 15 -21 0 -10 -6 -13 -16 -9 -9 3 -20 6
-25 6 -7 0 -7 24 0 73 2 12 18 8 32 -10z m122 -33 c-5 -17 0 -20 26 -20 19 0
34 6 37 15 9 21 21 19 49 -10 17 -16 25 -35 25 -57 -1 -31 -1 -32 -15 -14 -15
19 -15 19 -41 -5 -20 -19 -36 -24 -75 -24 -27 0 -49 -3 -49 -7 0 -13 42 -20
78 -14 33 6 35 5 16 -6 -12 -7 -19 -19 -16 -27 3 -10 0 -12 -12 -8 -10 4 -24
7 -33 7 -21 0 -73 55 -73 79 0 11 14 35 30 53 17 19 26 34 19 37 -8 2 -7 6 2
12 24 15 37 10 32 -11z m-110 -74 c6 -15 -1 -26 -15 -26 -4 0 -8 6 -8 13 0 7
-17 13 -45 14 -47 2 -61 -10 -22 -21 18 -5 19 -8 7 -16 -10 -6 -21 -3 -37 12
-12 11 -20 25 -17 29 9 16 131 11 137 -5z m-128 -56 c8 -24 102 -54 148 -47
19 3 45 -2 62 -11 l30 -16 -35 -9 c-19 -5 -118 -10 -220 -11 -107 -2 -229 -10
-290 -19 -57 -9 -105 -15 -107 -13 -2 1 52 24 120 51 67 26 151 63 186 81 68
35 93 34 106 -6z m95 3 c0 -5 12 -9 26 -9 25 -2 41 -10 33 -18 -2 -2 -31 1
-64 6 -46 8 -55 13 -40 19 26 10 45 11 45 2z m260 -12 c-10 -20 -47 -37 -57
-27 -4 4 54 46 65 46 1 0 -2 -9 -8 -19z m160 -95 c-40 -8 -42 -10 -20 -16 22
-6 21 -7 -15 -13 -22 -4 -78 -6 -125 -5 -47 0 -72 3 -56 5 57 9 4 21 -73 17
-73 -3 -74 -3 -26 7 28 5 95 7 150 5 65 -3 116 -1 145 7 25 7 50 11 55 8 6 -3
-10 -10 -35 -15z m-697 -28 c-40 -6 -73 -14 -73 -19 0 -5 8 -9 17 -9 33 0 188
22 208 30 11 4 53 8 94 8 69 0 72 -1 46 -14 -16 -8 -57 -14 -99 -14 -39 0
-132 -9 -206 -20 -160 -23 -205 -25 -145 -5 40 13 39 13 -50 15 l-90 3 95 8
c52 4 113 12 135 17 22 6 63 10 90 10 45 -1 43 -2 -22 -10z m697 -42 c0 -19
-120 -30 -350 -31 -149 -1 -205 -5 -287 -23 -55 -12 -156 -24 -223 -28 l-122
-7 4 24 c3 23 6 24 113 30 61 4 139 12 175 19 66 12 331 26 563 28 102 2 127
-1 127 -12z m34 -63 c-6 -103 -14 -106 -14 -5 0 46 4 82 10 82 5 0 7 -31 4
-77z m-76 20 c-10 -2 -26 -2 -35 0 -10 3 -2 5 17 5 19 0 27 -2 18 -5z m-273
-13 c18 -8 18 -9 -5 -9 -14 0 -45 4 -70 8 l-45 8 50 1 c28 0 59 -3 70 -8z
m198 3 c-13 -2 -35 -2 -50 0 -16 2 -5 4 22 4 28 0 40 -2 28 -4z m-423 -13
c-14 -4 -36 -8 -50 -8 -22 0 -22 1 5 8 17 4 39 8 50 8 16 0 15 -2 -5 -8z m530
-37 c-1 -21 2 -55 6 -75 15 -90 -31 -131 -166 -147 -106 -14 -133 -14 -125 -1
3 6 2 10 -4 10 -5 0 -11 -5 -13 -11 -8 -23 -648 -53 -648 -30 0 13 33 19 150
26 58 3 137 10 175 16 39 5 174 18 302 29 187 15 239 23 272 39 38 20 40 23
34 58 -3 23 -16 49 -34 66 -32 31 -39 33 -39 12 0 -11 -12 -15 -42 -16 -118
-4 -189 -9 -248 -18 -241 -35 -265 -38 -462 -46 -112 -4 -127 -3 -133 12 -9
26 22 43 79 43 64 0 261 25 347 45 46 10 109 13 215 11 82 -2 176 0 209 4 125
15 126 15 125 -27z m-613 21 c-3 -3 -12 -4 -19 -1 -8 3 -5 6 6 6 11 1 17 -2
13 -5z m-159 -20 c-9 -9 -198 -20 -198 -12 0 4 30 9 68 11 37 2 82 4 101 5 19
1 32 -1 29 -4z m510 -61 c-10 -2 -28 -2 -40 0 -13 2 -5 4 17 4 22 1 32 -1 23
-4z m-80 -10 c-10 -2 -28 -2 -40 0 -13 2 -5 4 17 4 22 1 32 -1 23 -4z m270
-16 c5 -24 -112 -56 -248 -68 -63 -5 -144 -13 -180 -18 -36 -6 -152 -13 -258
-17 l-194 -7 4 29 3 29 170 6 c94 4 197 11 230 18 33 6 114 16 180 22 66 6
154 14 195 18 90 9 94 9 98 -12z m-645 -24 c-18 -2 -48 -2 -65 0 -18 2 -4 4
32 4 36 0 50 -2 33 -4z m747 -72 c0 -10 -43 -41 -85 -59 -19 -9 -80 -15 -165
-17 l-135 -4 120 10 c145 12 186 22 222 54 30 26 43 31 43 16z"/>
<path d="M4820 2650 c0 -5 5 -10 11 -10 5 0 7 5 4 10 -3 6 -8 10 -11 10 -2 0
-4 -4 -4 -10z"/>
<path d="M4905 2650 c-3 -5 -1 -10 4 -10 6 0 11 5 11 10 0 6 -2 10 -4 10 -3 0
-8 -4 -11 -10z"/>
<path d="M4735 2640 c4 -6 11 -8 16 -5 14 9 11 15 -7 15 -8 0 -12 -5 -9 -10z"/>
<path d="M4710 2431 c0 -6 4 -13 10 -16 6 -3 7 1 4 9 -7 18 -14 21 -14 7z"/>
<path d="M3755 2190 c-50 -26 -76 -60 -82 -111 -19 -138 162 -196 275 -89 13
12 21 25 18 28 -4 3 -16 -4 -29 -15 -55 -51 -119 -65 -180 -39 -46 19 -67 47
-69 93 -3 98 120 166 212 118 60 -31 23 -109 -48 -103 -34 3 -37 5 -37 36 0
39 -19 37 -23 -3 -7 -58 72 -76 128 -29 90 76 -51 174 -165 114z"/>
<path d="M4895 2195 c-66 -31 -95 -73 -95 -138 0 -40 5 -54 28 -77 48 -47 134
-60 196 -28 29 14 66 49 66 61 0 6 -10 1 -22 -10 -61 -55 -125 -66 -195 -32
-34 16 -45 28 -54 59 -10 32 -9 44 7 76 30 59 64 79 139 79 52 0 67 -4 79 -20
33 -44 2 -95 -58 -95 -43 0 -62 20 -46 51 10 17 9 20 -2 17 -7 -3 -15 -17 -16
-33 -7 -60 78 -77 129 -26 16 16 29 37 29 46 0 67 -106 107 -185 70z"/>
<path d="M4118 2194 c-5 -4 -8 -51 -8 -105 0 -75 -4 -101 -16 -113 -20 -21
-31 -20 -43 2 -9 16 -11 16 -24 -2 -17 -23 -37 -14 -30 14 4 15 14 20 36 20
23 0 28 3 20 11 -19 19 -62 2 -69 -26 -11 -44 0 -55 53 -52 27 2 54 6 60 10 6
4 14 1 16 -5 4 -10 8 -10 15 1 8 11 13 11 32 -2 21 -14 26 -14 52 -1 21 11 33
12 42 5 7 -6 29 -11 47 -11 19 0 49 -1 68 -2 25 0 40 6 53 22 27 33 21 49 -7
18 -28 -32 -35 -35 -35 -11 0 22 -22 83 -31 83 -3 0 -9 -13 -12 -30 -7 -33
-43 -74 -57 -65 -6 4 -3 16 6 30 9 13 13 29 9 35 -12 20 -45 10 -60 -20 -16
-32 -49 -55 -65 -45 -5 3 0 15 10 25 11 11 20 25 20 30 0 17 -31 24 -51 12
-17 -11 -18 -6 -21 84 -2 53 -6 92 -10 88z m59 -199 c-4 -8 -14 -15 -23 -15
-16 0 -16 2 1 20 20 22 31 20 22 -5z m103 6 c0 -6 -4 -13 -10 -16 -5 -3 -10 1
-10 9 0 9 5 16 10 16 6 0 10 -4 10 -9z m80 -26 c0 -8 -4 -15 -10 -15 -5 0 -10
7 -10 15 0 8 5 15 10 15 6 0 10 -7 10 -15z"/>
<path d="M5610 2103 c0 -73 -4 -104 -16 -121 -17 -25 -44 -29 -44 -7 0 20 -10
19 -25 -2 -11 -15 -35 -11 -35 7 0 16 31 39 45 34 8 -4 15 -1 15 5 0 6 -10 11
-23 11 -16 0 -35 -14 -56 -41 -38 -46 -74 -51 -79 -10 -5 30 15 52 28 31 11
-18 22 -8 14 14 -12 30 -39 19 -66 -29 -19 -35 -43 -47 -34 -18 14 43 -22 71
-52 41 -9 -9 -12 -7 -12 10 0 31 -16 27 -23 -5 -9 -42 -31 -67 -52 -60 -12 5
-16 15 -12 33 3 15 0 23 -7 21 -6 -2 -12 -16 -14 -30 -2 -15 -9 -27 -16 -27
-21 0 -25 11 -16 36 6 14 6 26 0 29 -11 7 -23 -35 -18 -62 4 -24 95 -29 121
-6 21 20 21 19 -3 -45 -11 -29 -21 -74 -23 -100 -2 -41 1 -47 19 -50 28 -4 44
40 44 124 l0 62 29 -11 c25 -9 33 -8 50 8 20 18 22 18 42 -1 20 -18 22 -18 51
-1 16 9 35 14 41 10 19 -12 101 -12 110 1 5 8 10 7 17 -4 9 -13 11 -13 21 0 8
11 12 12 16 3 7 -18 54 -16 80 2 19 13 22 13 27 0 4 -10 18 -15 43 -14 21 0
50 -2 65 -6 21 -6 32 -2 52 18 27 27 34 47 16 47 -5 0 -10 -7 -10 -15 0 -8 -9
-19 -20 -25 -17 -9 -20 -8 -20 7 0 28 -26 94 -33 86 -4 -3 -7 -17 -7 -30 0
-28 -45 -77 -61 -67 -7 4 -8 9 -1 13 10 6 15 25 13 49 -2 19 -39 14 -45 -6
-10 -30 -53 -65 -72 -58 -14 5 -13 8 7 25 14 11 20 24 16 34 -8 21 -46 22 -53
2 -15 -38 -21 -7 -17 79 4 63 2 96 -6 100 -8 5 -11 -21 -11 -91z m70 -98 c0
-8 -2 -15 -4 -15 -2 0 -12 -3 -21 -7 -15 -5 -16 -3 -6 15 13 25 31 29 31 7z
m95 -14 c-9 -16 -25 -3 -18 15 4 10 9 12 15 6 6 -6 7 -15 3 -21z m-455 0 c0
-24 -15 -35 -36 -27 -12 5 -12 9 -2 26 16 25 38 26 38 1z m540 -25 c-14 -14
-22 -2 -14 18 5 14 9 15 15 4 4 -7 4 -17 -1 -22z m-615 -142 c-3 -24 -10 -44
-16 -44 -12 0 -11 37 3 85 14 49 23 23 13 -41z"/>
<path d="M4565 2113 c-10 -9 -15 -26 -12 -39 3 -16 -4 -31 -20 -45 -16 -16
-21 -29 -17 -43 19 -66 128 -59 154 10 7 18 17 24 40 24 16 0 30 5 30 11 0 8
-13 10 -37 5 -21 -3 -48 -6 -60 -6 -13 0 -23 -4 -23 -9 0 -5 10 -11 23 -13
l22 -3 -22 -22 c-27 -27 -84 -31 -104 -7 -18 22 -1 46 42 61 31 11 32 13 12
19 -32 9 -36 32 -7 50 19 13 30 14 47 6 l22 -10 -25 -10 c-22 -9 -23 -11 -7
-17 27 -11 55 18 37 39 -17 21 -74 20 -95 -1z"/>
</g>
</svg>
